Coordinates
version=1
nRows=21
nColumns=38
inDegrees=no

Units are S.I. units (second, meters, Newtons, ...)
If the header above contains a line with 'inDegrees', this indicates whether rotational values are in degrees (yes) or radians (no).

endheader
time	pelvis_tilt	pelvis_list	pelvis_rotation	pelvis_tx	pelvis_ty	pelvis_tz	hip_flexion_r	hip_adduction_r	hip_rotation_r	knee_angle_r	ankle_angle_r	subtalar_angle_r	mtp_angle_r	hip_flexion_l	hip_adduction_l	hip_rotation_l	knee_angle_l	ankle_angle_l	subtalar_angle_l	mtp_angle_l	lumbar_extension	lumbar_bending	lumbar_rotation	arm_flex_r	arm_add_r	arm_rot_r	elbow_flex_r	pro_sup_r	wrist_flex_r	wrist_dev_r	arm_flex_l	arm_add_l	arm_rot_l	elbow_flex_l	pro_sup_l	wrist_flex_l	wrist_dev_l
0.77	2.20999	1.32519	2.57799	0.508455	0.831621	0.996822	0.32161	-0.433545	0.0173516	1.29805	-0.501778	0	0	0.498979	0.134011	-0.368695	0.548084	-0.198835	0	0	-0.0607765	-0.260327	0.225349	0.0773009	-0.461181	1.00853	0.652383	0.543022	0	0	0.204338	-0.453924	1.11171	0.639847	0.281812	0	0
0.78	2.23394	1.32907	2.55897	0.511483	0.822871	0.997925	0.346621	-0.421998	0.0318093	1.32944	-0.534641	0	0	0.449976	0.141119	-0.189133	0.46539	-0.192363	0	0	-0.0599411	-0.254226	0.218259	0.0815984	-0.459562	1.01238	0.649828	0.543374	0	0	0.203814	-0.454748	1.10506	0.640541	0.290389	0	0
0.79	2.18483	1.33325	2.60231	0.515887	0.812466	1.00059	0.356478	-0.426642	0.0452065	1.35274	-0.565931	0	0	0.461517	0.138053	-0.384949	0.543923	-0.185031	0	0	-0.0714433	-0.254253	0.216425	0.0860791	-0.465119	1.01733	0.653309	0.54751	0	0	0.196868	-0.450903	1.08636	0.641142	0.304871	0	0
0.8	2.17225	1.33619	2.61338	0.519109	0.803281	1.00232	0.375374	-0.420443	0.0617	1.37881	-0.572708	0	0	0.44374	0.140215	-0.389923	0.540765	-0.176975	0	0	-0.072491	-0.252809	0.22799	0.0755293	-0.46749	0.997949	0.655589	0.552473	0	0	0.221318	-0.449195	1.14934	0.636861	0.251556	0	0
0.81	2.16478	1.3394	2.61981	0.522242	0.794476	1.00404	0.394853	-0.411272	0.0775209	1.40223	-0.572094	0	0	0.427665	0.141489	-0.390376	0.537378	-0.175056	0	0	-0.0771768	-0.250045	0.217061	0.0904136	-0.468295	1.02012	0.653498	0.542069	0	0	0.208761	-0.450105	1.11395	0.64095	0.277621	0	0
0.82	2.15455	1.34339	2.62936	0.525095	0.786106	1.00578	0.413616	-0.399568	0.0924291	1.42504	-0.55198	0	0	0.411755	0.141426	-0.388813	0.535556	-0.169124	0	0	-0.0822556	-0.24749	0.216251	0.0935971	-0.469953	1.01905	0.654357	0.542139	0	0	0.215549	-0.450272	1.12533	0.642392	0.266869	0	0
0.83	2.155	1.34634	2.62956	0.5281	0.777437	1.00718	0.433561	-0.387782	0.104933	1.44576	-0.518153	0	0	0.39861	0.140804	-0.387039	0.534467	-0.161127	0	0	-0.0840048	-0.24496	0.220859	0.0853484	-0.470173	0.994483	0.655673	0.560199	0	0	0.229886	-0.449179	1.15677	0.641593	0.242016	0	0
0.84	2.15805	1.34888	2.62665	0.531024	0.768706	1.00849	0.454362	-0.375824	0.117687	1.46289	-0.497495	0	0	0.385798	0.139431	-0.38781	0.533035	-0.157019	0	0	-0.0850439	-0.242037	0.218139	0.0879149	-0.470021	0.992774	0.654368	0.56286	0	0	0.231021	-0.44909	1.15705	0.642905	0.239446	0	0
0.85	2.16043	1.35122	2.62387	0.533761	0.76009	1.00978	0.475177	-0.362739	0.131809	1.47669	-0.477097	0	0	0.372491	0.137715	-0.390794	0.530897	-0.153831	0	0	-0.0862169	-0.239513	0.215942	0.0910379	-0.469797	0.991709	0.652925	0.565169	0	0	0.232339	-0.448955	1.15661	0.644107	0.237515	0	0
0.86	2.15869	1.35355	2.62477	0.536381	0.751504	1.0112	0.494576	-0.349373	0.145856	1.48641	-0.457829	0	0	0.35721	0.137045	-0.39358	0.526311	-0.151485	0	0	-0.0883486	-0.237466	0.213944	0.0948578	-0.46968	0.991468	0.651499	0.566839	0	0	0.233735	-0.448547	1.15554	0.644798	0.236549	0	0
0.87	2.15146	1.35598	2.63073	0.538931	0.742894	1.0128	0.51177	-0.336032	0.159565	1.49247	-0.433624	0	0	0.339405	0.137256	-0.398353	0.519145	-0.149594	0	0	-0.0918178	-0.235917	0.211839	0.0994804	-0.469538	0.992049	0.649894	0.568461	0	0	0.234709	-0.447919	1.15266	0.645234	0.237748	0	0
0.88	2.14598	1.3583	2.63599	0.541644	0.734235	1.01434	0.527628	-0.323488	0.170394	1.49454	-0.409378	0	0	0.321441	0.138227	-0.403432	0.511	-0.148105	0	0	-0.0950919	-0.234116	0.208712	0.104164	-0.469392	0.993308	0.648099	0.57011	0	0	0.235005	-0.446932	1.14814	0.645254	0.241051	0	0
0.89	2.14354	1.36045	2.63893	0.544475	0.7256	1.01575	0.542788	-0.311513	0.178822	1.49266	-0.387928	0	0	0.303937	0.139414	-0.408442	0.502336	-0.146826	0	0	-0.0981594	-0.231996	0.204805	0.108903	-0.46935	0.994701	0.646233	0.572005	0	0	0.234521	-0.445243	1.14107	0.644732	0.245511	0	0
0.9	2.14191	1.36274	2.64126	0.547335	0.716981	1.01709	0.557126	-0.299315	0.186389	1.48728	-0.365779	0	0	0.286376	0.140604	-0.412878	0.49287	-0.145624	0	0	-0.102055	-0.229434	0.199285	0.114533	-0.469345	0.99614	0.644429	0.576773	0	0	0.230762	-0.443066	1.12469	0.644063	0.258021	0	0
0.91	2.13672	1.36524	2.64736	0.550142	0.708411	1.01834	0.570269	-0.287346	0.193311	1.47964	-0.339963	0	0	0.268228	0.141987	-0.416111	0.483011	-0.144417	0	0	-0.103312	-0.227001	0.203729	0.112029	-0.471287	0.990951	0.643817	0.573047	0	0	0.246695	-0.439164	1.16413	0.638013	0.218924	0	0
0.92	2.13533	1.36768	2.65006	0.553036	0.69989	1.01942	0.58385	-0.275543	0.198989	1.46888	-0.323427	0	0	0.251842	0.142916	-0.418197	0.47444	-0.143622	0	0	-0.106604	-0.224132	0.200336	0.116123	-0.472549	0.993045	0.642828	0.573576	0	0	0.247623	-0.436786	1.16079	0.636619	0.21903	0	0
0.93	2.13747	1.36987	2.64927	0.555899	0.691463	1.0203	0.598322	-0.263908	0.203957	1.45585	-0.316165	0	0	0.237622	0.142999	-0.420837	0.468486	-0.142857	0	0	-0.109694	-0.221097	0.195443	0.121626	-0.473904	0.996883	0.642108	0.574292	0	0	0.2455	-0.435324	1.14891	0.636997	0.229377	0	0
0.94	2.13953	1.37157	2.6488	0.558673	0.68313	1.02102	0.612846	-0.253236	0.208858	1.44132	-0.306344	0	0	0.224152	0.143524	-0.422645	0.463166	-0.142446	0	0	-0.111768	-0.218632	0.193573	0.124141	-0.475913	0.996997	0.642464	0.574389	0	0	0.24928	-0.433811	1.15317	0.636269	0.22734	0	0
0.95	2.1392	1.37326	2.6491	0.561209	0.674896	1.02167	0.626211	-0.241856	0.215269	1.42402	-0.281841	0	0	0.209511	0.144532	-0.424945	0.455437	-0.140541	0	0	-0.114386	-0.216347	0.192118	0.128429	-0.47885	1.00044	0.644071	0.571818	0	0	0.251191	-0.43217	1.15153	0.635884	0.228574	0	0
0.96	2.14461	1.37428	2.64371	0.563697	0.666782	1.02199	0.641004	-0.230897	0.220399	1.40475	-0.268258	0	0	0.197802	0.145015	-0.428279	0.451065	-0.138156	0	0	-0.116103	-0.214364	0.190204	0.132445	-0.481633	1.002	0.646354	0.571203	0	0	0.251774	-0.431246	1.14591	0.637512	0.229249	0	0
0.97	2.15194	1.37451	2.63671	0.566167	0.658735	1.02205	0.656218	-0.222406	0.224951	1.38549	-0.256841	0	0	0.187602	0.145975	-0.431048	0.448158	-0.135799	0	0	-0.117043	-0.213152	0.188571	0.135884	-0.48441	1.00298	0.648978	0.570772	0	0	0.252601	-0.43044	1.14047	0.639681	0.229061	0	0
